<?xml version="1.0" encoding="UTF-8" standalone="no"?>
<!DOCTYPE svg PUBLIC "-//W3C//DTD SVG 1.1//EN" "http://www.w3.org/Graphics/SVG/1.1/DTD/svg11.dtd">
<svg width="100%" height="100%" viewBox="0 0 56 34" version="1.1" xmlns="http://www.w3.org/2000/svg" xmlns:xlink="http://www.w3.org/1999/xlink" xml:space="preserve" xmlns:serif="http://www.serif.com/" style="fill-rule:evenodd;clip-rule:evenodd;stroke-linejoin:round;stroke-miterlimit:2;">
    <path d="M51.395,27.89L52.441,27.89L52.441,28.209C52.651,29.593 54.43,30.019 55.268,28.848C56.105,27.677 55.058,26.081 53.698,26.4C53.488,26.4 53.279,26.506 53.174,26.613L49.929,23.313L51.709,21.503C52.441,20.758 52.441,19.693 51.709,18.948L49.406,16.606C48.673,15.861 47.522,15.861 46.894,16.606L44.696,18.842C45.324,19.8 45.324,21.077 44.591,22.035L43.544,23.1L44.8,24.377L45.638,25.229L46.894,26.506C45.638,26.826 45.219,28.529 46.37,29.38C47.417,30.232 48.987,29.38 48.883,27.997L50.034,27.997C48.569,28.848 49.197,30.977 50.767,30.977C52.232,30.871 52.755,28.635 51.395,27.89ZM32.868,19.906L33.286,20.332L36.426,17.032L36.112,16.606L32.868,19.906ZM28.471,20.545C28.367,20.332 28.262,20.013 28.262,19.8L28.262,13.732C28.262,13.306 28.367,12.881 28.681,12.561C28.681,12.455 28.785,12.455 28.785,12.348L30.669,10.432L28.785,8.623C28.471,8.303 28.262,7.771 28.262,7.345L28.262,1.81C28.262,0.852 29.099,0 30.041,0L30.46,0C31.402,0 32.24,0.852 32.24,1.81L32.24,2.555L33.496,1.277C34.228,0.532 35.38,0.532 36.008,1.277L36.217,1.49C36.95,2.235 36.95,3.406 36.217,4.045L32.972,7.345L33.391,7.771L37.264,3.832C37.997,3.087 39.148,3.087 39.776,3.832L39.881,3.939C40.613,4.684 40.613,5.855 39.881,6.494L32.868,13.839L33.286,14.264L39.881,7.452C40.613,6.706 41.765,6.706 42.393,7.452L42.498,7.452C43.23,8.197 43.23,9.261 42.498,10.006L38.834,13.839L39.253,14.264L41.137,12.348C41.869,11.603 43.021,11.603 43.649,12.348L43.754,12.455C44.486,13.2 44.486,14.264 43.754,15.01L39.043,19.8L39.462,20.226L42.393,17.245L43.858,18.735C44.591,19.481 44.591,20.652 43.858,21.29L40.509,24.484C39.881,25.122 38.834,25.229 38.206,24.697L37.997,24.484L36.217,22.674L32.24,26.719C31.507,27.464 30.355,27.464 29.727,26.719L29.518,26.613C28.785,25.868 28.785,24.697 29.518,24.058L30.669,22.887L29.204,21.397L28.995,21.29L28.89,21.184L28.785,21.077C28.681,20.864 28.471,20.758 28.471,20.545ZM38.52,30.977C38.625,30.232 38.101,29.38 37.369,29.168L37.997,28.529C38.729,27.784 38.729,26.719 37.997,25.974L36.112,24.164L30.983,29.38C30.774,29.274 30.669,29.168 30.46,29.168C29.099,28.955 28.053,30.551 28.89,31.722C29.727,32.893 31.507,32.468 31.716,30.977L31.716,30.658L32.763,30.658C31.612,31.403 31.926,33.213 33.286,33.532C34.961,33.639 35.589,31.51 34.228,30.551L35.38,30.551C35.589,32.255 37.997,32.574 38.52,30.977ZM9.944,28.209C10.049,27.464 9.525,26.719 8.793,26.4L10.886,24.271L12.247,22.887L11.2,21.822C10.468,20.864 10.363,19.587 11.096,18.629L8.897,16.393C8.165,15.648 7.013,15.648 6.385,16.393L4.082,18.735C3.35,19.481 3.35,20.652 4.082,21.29L5.862,23.1L2.512,26.613C2.303,26.506 2.198,26.4 1.989,26.4C0.628,26.187 -0.418,27.784 0.419,28.955C1.256,30.126 3.036,29.7 3.245,28.209L3.245,27.89L4.292,27.89C3.873,28.103 3.559,28.529 3.559,28.955C3.35,30.232 4.606,31.297 5.757,30.658C6.909,30.126 6.909,28.422 5.862,27.784L7.013,27.784C7.118,29.593 9.421,29.806 9.944,28.209ZM19.155,17.032L22.4,20.332L22.819,19.906L19.574,16.606L19.155,17.032ZM12.038,15.116C11.305,14.371 11.305,13.2 12.038,12.561L12.142,12.455C12.875,11.71 14.026,11.71 14.655,12.455L16.539,14.371L16.957,13.945L13.084,10.006C12.352,9.261 12.352,8.197 13.084,7.452L13.189,7.452C13.922,6.706 15.073,6.706 15.701,7.452L22.4,14.264L22.819,13.839L15.701,6.706C14.969,5.961 14.969,4.79 15.701,4.152L15.806,4.045C16.539,3.3 17.69,3.3 18.318,4.045L22.191,7.984L22.61,7.558L19.365,4.258C18.632,3.513 18.632,2.342 19.365,1.703L19.574,1.49C20.307,0.745 21.354,0.745 22.086,1.49L23.342,2.768L23.342,1.81C23.342,0.852 24.18,0 25.122,0L25.645,0C26.587,0 27.425,0.852 27.425,1.81L27.425,7.345C27.425,7.877 27.215,8.303 26.901,8.623L25.017,10.539L26.901,12.455L27.006,12.668C27.32,12.987 27.425,13.413 27.425,13.839L27.425,19.8C27.425,20.332 27.215,20.758 26.901,21.077L26.797,21.184L26.587,21.397L25.017,22.993L26.064,24.164C26.797,24.91 26.797,26.081 26.064,26.719L25.959,26.826C25.226,27.571 24.075,27.571 23.447,26.826L21.144,24.484L21.04,24.377L19.469,22.781L17.69,24.484L17.481,24.697C16.748,25.229 15.806,25.122 15.178,24.484L12.142,21.29C11.41,20.545 11.41,19.481 12.142,18.735L13.608,17.352L16.539,20.332L16.957,19.906L12.038,15.116ZM20.621,32.255C20.516,31.616 20.83,30.977 21.458,30.658L20.307,30.658C20.412,32.042 18.946,32.893 17.795,32.042C16.643,31.19 17.062,29.487 18.318,29.168L17.69,28.529C16.957,27.784 16.957,26.613 17.69,25.974L19.469,24.164L24.703,29.487C24.912,29.38 25.017,29.274 25.226,29.274C26.587,29.061 27.634,30.658 26.797,31.829C25.959,33 24.18,32.574 23.97,31.084L23.97,30.764L22.924,30.764C23.97,31.297 24.075,32.787 23.133,33.532C22.086,34.064 20.726,33.426 20.621,32.255Z" style="fill:rgb(20,20,20);fill-rule:nonzero;"/>
</svg>
