<?xml version="1.0" ?><!DOCTYPE svg  PUBLIC '-//W3C//DTD SVG 1.1//EN'  'http://www.w3.org/Graphics/SVG/1.1/DTD/svg11.dtd'><svg enable-background="new 0 0 512 512" height="512px" id="sun_x5F_glasses" version="1.1" viewBox="0 0 512 512" width="512px" xml:space="preserve" xmlns="http://www.w3.org/2000/svg" xmlns:xlink="http://www.w3.org/1999/xlink"><g><path d="M389.172,261.184h-70.567c-21.833,0-29.938,18.88-30.056,31.505l-0.457,24.155c-0.115,12.231,3.15,23.823,9.442,33.521   c7.815,12.046,23.663,26.731,54.774,28.28c2.242,0.11,4.442,0.166,6.602,0.166c23.45,0,41.983-6.568,55.151-19.565   c10.054-9.921,15.819-24.104,15.819-38.91v-27.044C429.881,273.487,414.281,261.184,389.172,261.184z M331.808,333.477   c-1.728,0-3.455-0.659-4.772-1.978c-2.637-2.636-2.637-6.91,0-9.545l32.225-32.225c2.635-2.637,6.911-2.637,9.545,0   c2.637,2.635,2.637,6.909,0,9.545l-32.225,32.225C335.264,332.817,333.535,333.477,331.808,333.477z M396.439,306.661   l-45.022,45.021c-1.317,1.318-3.046,1.978-4.772,1.978s-3.455-0.659-4.772-1.978c-2.637-2.636-2.637-6.909,0-9.545l45.022-45.021   c2.634-2.637,6.91-2.637,9.545,0C399.075,299.751,399.075,304.025,396.439,306.661z"/><path d="M451.903,265.646c-0.942-10.203-6.663-18.792-14.837-23.7l-91.258-116.941c-1.967-2.769-10.633-13.744-25.976-16.334   c-12.344-2.084-25.087,1.794-37.86,11.529c-5.338,4.066-6.368,11.69-2.302,17.028c4.067,5.337,11.69,6.367,17.027,2.3   c7.118-5.423,13.461-7.756,18.874-6.931c6.064,0.925,9.899,5.778,10.379,6.417c0.19,0.301,0.251,0.364,0.499,0.683l76.345,97.832   h-96.533c-3.454,0-6.885,0.87-9.918,2.514l-27.685,14.995c-1.069,0.579-2.276,0.884-3.49,0.884h-18.333   c-1.215,0-2.421-0.305-3.49-0.884l-27.682-14.994c-3.036-1.645-6.467-2.515-9.922-2.515h-97.237l76.344-97.832   c0.192-0.247,0.376-0.502,0.549-0.763c0.034-0.052,3.821-5.24,10.111-6.302c5.456-0.918,11.879,1.401,19.093,6.896   c5.337,4.068,12.961,3.037,17.028-2.3c4.065-5.338,3.036-12.961-2.302-17.028c-12.773-9.733-25.511-13.61-37.862-11.529   c-15.346,2.591-24.012,13.568-25.978,16.335l-93.253,119.5c-6.818,5.362-11.444,13.405-12.28,22.724   c-5.156,57.559,0.865,90.963,20.132,111.699c15.771,16.977,40.703,24.944,78.251,24.943c1.442,0,2.908-0.012,4.388-0.035   c73.019-1.159,84.446-52.028,85.972-73.846c0.266-3.815,3.475-6.804,7.305-6.804s7.039,2.988,7.305,6.804   c1.527,21.817,12.957,72.687,85.974,73.846c40.037,0.65,66.326-7.3,82.699-24.973C451.348,357.961,457.307,324.1,451.903,265.646z    M422.076,369.691c-13.579,14.657-36.638,21.214-72.582,20.649c-25.586-0.405-69.057-8.909-72.719-61.289   c-0.76-10.857-9.884-19.362-20.773-19.362s-20.014,8.505-20.773,19.362c-3.658,52.38-47.13,60.882-72.717,61.289   c-35.893,0.556-58.949-5.976-72.534-20.598c-16.181-17.414-21.292-48.658-16.575-101.307c0.889-9.924,9.096-17.407,19.09-17.407   h113.25c1.216,0,2.422,0.306,3.491,0.885l27.682,14.993c3.036,1.646,6.467,2.516,9.921,2.516h18.333   c3.452,0,6.883-0.869,9.919-2.515l27.687-14.995c1.067-0.578,2.273-0.884,3.487-0.884h114.826c9.069,0,16.538,6.818,17.373,15.859   C443.408,320.415,438.354,352.12,422.076,369.691z"/><path d="M181.539,262.174h-69.224c-21.511,0-29.496,18.597-29.613,31.033l-0.446,23.695c-0.115,12.024,3.096,23.42,9.282,32.953   c7.684,11.843,23.26,26.28,53.833,27.801c2.202,0.109,4.365,0.163,6.487,0.163c23.036,0,41.245-6.456,54.187-19.231   c9.887-9.754,15.556-23.699,15.556-38.26v-26.527C221.601,274.293,206.25,262.174,181.539,262.174z M121.15,334.769   c-1.728,0-3.456-0.659-4.773-1.978c-2.637-2.636-2.637-6.91,0-9.545l32.625-32.624c2.634-2.637,6.91-2.637,9.545,0   c2.637,2.635,2.637,6.909,0,9.545l-32.625,32.624C124.605,334.109,122.877,334.769,121.15,334.769z M187.073,306.661   l-45.022,45.021c-1.316,1.318-3.045,1.978-4.772,1.978c-1.727,0-3.455-0.659-4.772-1.978c-2.637-2.636-2.637-6.909,0-9.545   l45.021-45.021c2.635-2.637,6.912-2.637,9.546,0C189.709,299.751,189.709,304.025,187.073,306.661z"/><path d="M71.511,210.269c1.235,0.971,2.705,1.441,4.165,1.441c2,0,3.981-0.885,5.313-2.581l3.829-4.875   c2.302-2.932,1.791-7.175-1.141-9.478c-2.929-2.302-7.175-1.793-9.478,1.139l-3.829,4.875   C68.068,203.724,68.579,207.966,71.511,210.269z"/><path d="M89.663,187.16c1.237,0.971,2.707,1.441,4.166,1.441c2,0,3.98-0.885,5.312-2.581l33.421-42.542   c2.304-2.932,1.793-7.175-1.138-9.478c-2.931-2.301-7.175-1.793-9.478,1.139l-33.421,42.543   C86.223,180.614,86.732,184.857,89.663,187.16z"/><path d="M427.355,207.59c1.332,1.708,3.32,2.602,5.33,2.602c1.451,0,2.911-0.465,4.145-1.425c2.939-2.292,3.467-6.533,1.176-9.474   l-33.286-42.709c-2.29-2.939-6.532-3.465-9.474-1.174c-2.939,2.292-3.466,6.533-1.174,9.474L427.355,207.59z"/><path d="M380.071,146.917c1.332,1.708,3.319,2.6,5.329,2.6c1.45,0,2.912-0.465,4.145-1.426c2.94-2.292,3.465-6.534,1.174-9.474   l-3.743-4.801c-2.292-2.938-6.53-3.466-9.474-1.173c-2.939,2.292-3.465,6.534-1.173,9.474L380.071,146.917z"/></g></svg>